<?xml version="1.0" encoding="utf-8"?>
<!-- Generator: Adobe Illustrator 25.4.1, SVG Export Plug-In . SVG Version: 6.00 Build 0)  -->
<svg version="1.1" id="Layer_1" xmlns="http://www.w3.org/2000/svg" xmlns:xlink="http://www.w3.org/1999/xlink" x="0px" y="0px"
	 viewBox="0 0 200 51.2" style="enable-background:new 0 0 200 51.2;" xml:space="preserve">
<style type="text/css">
	.st0{fill:#FFFFFF;}
</style>
<g>
	<g>
		<g>
			<g>
				<path class="st0" d="M89.5,22.5c0-1.3-0.4-2.5-1.1-3.5c-2-2.7-5.1-3.1-7.8-2c-2.4,1-25.2,21.3-49.7,21.3
					c-9.3,0-15.1-5.4-15.1-14c0-6.8,5.8-12.5,13.8-13.3c0.8-0.1,1.5-0.2,2.3-0.2h43.2c0.2,0,0.4,0,0.6,0c0,0,0.1,0,0.1,0
					c3,0,5.4-2.4,5.4-5.4c0-1-0.3-1.9-0.7-2.7C79.6,1,77.8,0,75.9,0H25.3C11.3,0.1,0,11.3,0,25.3c0,8.5,3.8,15.5,9.9,20.4
					c3.9,3.1,8.1,4.6,12.6,5.2c4.4,0.6,9.4,0.2,13.8-0.4c7.8-1,15-3.7,22-7.3c6-3.1,11.5-6.9,16.8-11.1c0.7-0.5,1.3-1,2-1.6
					c0.4-0.4,1.1,0,1.1,0.5v14.4c0,1.5,0.6,2.9,1.6,3.9c1,1,2.4,1.7,4,1.7c1.6,0,3.1-0.7,4.1-1.8c0,0,0.1-0.1,0.1-0.1
					c0.1-0.1,0.2-0.2,0.3-0.4c0,0,0,0,0.1-0.1c0.7-0.9,1.1-2.1,1.1-3.3c0-0.1,0-0.1,0-0.2c0-0.1,0-0.1,0-0.2V22.5z"/>
			</g>
			<path class="st0" d="M144.8,25.6c0,14.1-11.5,25.6-25.6,25.6S93.6,39.7,93.6,25.6S105,0,119.2,0S144.8,11.5,144.8,25.6z
				 M120.6,10.1c-7.8,0-14.1,6.3-14.1,14.1s6.3,14.1,14.1,14.1s14.1-6.3,14.1-14.1S128.4,10.1,120.6,10.1z"/>
			<path class="st0" d="M200,25.6c0,14.1-11.5,25.6-25.6,25.6c-14.1,0-25.6-11.5-25.6-25.6S160.3,0,174.4,0
				C188.5,0,200,11.5,200,25.6z M175.8,10.1c-7.8,0-14.1,6.3-14.1,14.1s6.3,14.1,14.1,14.1s14.1-6.3,14.1-14.1
				S183.6,10.1,175.8,10.1z"/>
		</g>
	</g>
</g>
</svg>